<svg xmlns="http://www.w3.org/2000/svg" version="1.1" xmlns:xlink="http://www.w3.org/1999/xlink" xmlns:svgjs="http://svgjs.dev/svgjs" viewBox="0 0 800 800"><defs><linearGradient x1="50%" y1="0%" x2="50%" y2="100%" id="hhhorizon-grad"><stop stop-color="hsl(206, 75%, 49%)" stop-opacity="1" offset="25%"></stop><stop stop-color="hsl(331, 90%, 56%)" stop-opacity="1" offset="100%"></stop></linearGradient><linearGradient x1="50%" y1="0%" x2="50%" y2="100%" id="hhhorizon-grad2"><stop stop-color="hsl(331, 90%, 56%)" stop-opacity="1" offset="0%"></stop><stop stop-color="hsl(206, 75%, 49%)" stop-opacity="1" offset="75%"></stop></linearGradient><clipPath id="SvgjsClipPath1039"><rect width="800" height="37" x="0" y="0"></rect><rect width="800" height="36" x="0" y="22"></rect><rect width="800" height="35" x="0" y="44"></rect><rect width="800" height="34" x="0" y="67"></rect><rect width="800" height="33" x="0" y="89"></rect><rect width="800" height="32" x="0" y="111"></rect><rect width="800" height="31" x="0" y="133"></rect><rect width="800" height="30" x="0" y="156"></rect><rect width="800" height="29" x="0" y="178"></rect><rect width="800" height="28" x="0" y="200"></rect><rect width="800" height="27" x="0" y="222"></rect><rect width="800" height="26" x="0" y="244"></rect><rect width="800" height="25" x="0" y="267"></rect><rect width="800" height="24" x="0" y="289"></rect><rect width="800" height="23" x="0" y="311"></rect><rect width="800" height="22" x="0" y="333"></rect><rect width="800" height="21" x="0" y="356"></rect><rect width="800" height="20" x="0" y="378"></rect><rect width="800" height="19" x="0" y="400"></rect><rect width="800" height="18" x="0" y="422"></rect><rect width="800" height="17" x="0" y="444"></rect><rect width="800" height="16" x="0" y="467"></rect><rect width="800" height="15" x="0" y="489"></rect><rect width="800" height="14" x="0" y="511"></rect><rect width="800" height="13" x="0" y="533"></rect><rect width="800" height="12" x="0" y="556"></rect><rect width="800" height="11" x="0" y="578"></rect><rect width="800" height="10" x="0" y="600"></rect><rect width="800" height="9" x="0" y="622"></rect><rect width="800" height="8" x="0" y="644"></rect><rect width="800" height="7" x="0" y="667"></rect><rect width="800" height="6" x="0" y="689"></rect><rect width="800" height="5" x="0" y="711"></rect><rect width="800" height="4" x="0" y="733"></rect><rect width="800" height="3" x="0" y="756"></rect><rect width="800" height="2" x="0" y="778"></rect><rect width="800" height="1" x="0" y="800"></rect></clipPath><clipPath><rect width="800" height="1" x="0" y="37"></rect><rect width="800" height="2" x="0" y="74"></rect><rect width="800" height="3" x="0" y="111"></rect><rect width="800" height="4" x="0" y="148"></rect><rect width="800" height="5" x="0" y="185"></rect><rect width="800" height="6" x="0" y="222"></rect><rect width="800" height="7" x="0" y="259"></rect><rect width="800" height="8" x="0" y="296"></rect><rect width="800" height="9" x="0" y="333"></rect><rect width="800" height="10" x="0" y="370"></rect><rect width="800" height="11" x="0" y="407"></rect><rect width="800" height="12" x="0" y="444"></rect><rect width="800" height="13" x="0" y="481"></rect><rect width="800" height="14" x="0" y="518"></rect><rect width="800" height="15" x="0" y="555"></rect><rect width="800" height="16" x="0" y="592"></rect><rect width="800" height="17" x="0" y="629"></rect><rect width="800" height="18" x="0" y="666"></rect><rect width="800" height="19" x="0" y="703"></rect><rect width="800" height="20" x="0" y="740"></rect><rect width="800" height="21" x="0" y="777"></rect><rect width="800" height="22" x="0" y="814"></rect></clipPath></defs><rect width="800" height="800" fill="url(#hhhorizon-grad)" clip-path="url(&quot;#SvgjsClipPath1039&quot;)"></rect></svg>