<svg xmlns="http://www.w3.org/2000/svg" version="1.1" xmlns:xlink="http://www.w3.org/1999/xlink" xmlns:svgjs="http://svgjs.dev/svgjs" viewBox="0 0 800 800" opacity="0.49"><defs><linearGradient gradientTransform="rotate(270)" x1="50%" y1="0%" x2="50%" y2="100%" id="sssquiggly-grad"><stop stop-color="hsl(37, 99%, 67%)" stop-opacity="1" offset="0%"></stop><stop stop-color="hsl(316, 73%, 52%)" stop-opacity="1" offset="100%"></stop></linearGradient></defs><g stroke-width="1" stroke="url(#sssquiggly-grad)" fill="none" stroke-linecap="round" transform="matrix(1,0,0,1,-5,21.499961853027344)"><path d="M10,10C26.435185185185183,13.75,53.93518518518518,32.583333333333336,88.88888888888889,28C123.84259259259258,23.416666666666668,140.74074074074073,-11.791666666666666,177.77777777777777,-12C214.8148148148148,-12.208333333333334,229.6296296296296,27.416666666666668,266.66666666666663,27C303.7037037037037,26.583333333333332,318.5185185185185,-14.625,355.55555555555554,-14C392.5925925925926,-13.375,407.40740740740745,29.375,444.44444444444446,30C481.48148148148147,30.625,496.29629629629625,-10.166666666666666,533.3333333333333,-11C570.3703703703703,-11.833333333333334,585.1851851851851,25.583333333333332,622.2222222222222,26C659.2592592592592,26.416666666666668,674.074074074074,-9.416666666666666,711.1111111111111,-9C748.1481481481482,-8.583333333333334,781.4814814814815,20.291666666666664,800,28"></path><path d="M10,10C26.435185185185183,13.75,53.93518518518518,32.583333333333336,88.88888888888889,28C123.84259259259258,23.416666666666668,140.74074074074073,-11.791666666666666,177.77777777777777,-12C214.8148148148148,-12.208333333333334,229.6296296296296,27.416666666666668,266.66666666666663,27C303.7037037037037,26.583333333333332,318.5185185185185,-14.625,355.55555555555554,-14C392.5925925925926,-13.375,407.40740740740745,29.375,444.44444444444446,30C481.48148148148147,30.625,496.29629629629625,-10.166666666666666,533.3333333333333,-11C570.3703703703703,-11.833333333333334,585.1851851851851,25.583333333333332,622.2222222222222,26C659.2592592592592,26.416666666666668,674.074074074074,-9.416666666666666,711.1111111111111,-9C748.1481481481482,-8.583333333333334,781.4814814814815,20.291666666666664,800,28" transform="matrix(1,0,0,1,0,741)"></path><path d="M10,10C26.435185185185183,13.75,53.93518518518518,32.583333333333336,88.88888888888889,28C123.84259259259258,23.416666666666668,140.74074074074073,-11.791666666666666,177.77777777777777,-12C214.8148148148148,-12.208333333333334,229.6296296296296,27.416666666666668,266.66666666666663,27C303.7037037037037,26.583333333333332,318.5185185185185,-14.625,355.55555555555554,-14C392.5925925925926,-13.375,407.40740740740745,29.375,444.44444444444446,30C481.48148148148147,30.625,496.29629629629625,-10.166666666666666,533.3333333333333,-11C570.3703703703703,-11.833333333333334,585.1851851851851,25.583333333333332,622.2222222222222,26C659.2592592592592,26.416666666666668,674.074074074074,-9.416666666666666,711.1111111111111,-9C748.1481481481482,-8.583333333333334,781.4814814814815,20.291666666666664,800,28" transform="matrix(1,0,0,1,0,722)"></path><path d="M10,10C26.435185185185183,13.75,53.93518518518518,32.583333333333336,88.88888888888889,28C123.84259259259258,23.416666666666668,140.74074074074073,-11.791666666666666,177.77777777777777,-12C214.8148148148148,-12.208333333333334,229.6296296296296,27.416666666666668,266.66666666666663,27C303.7037037037037,26.583333333333332,318.5185185185185,-14.625,355.55555555555554,-14C392.5925925925926,-13.375,407.40740740740745,29.375,444.44444444444446,30C481.48148148148147,30.625,496.29629629629625,-10.166666666666666,533.3333333333333,-11C570.3703703703703,-11.833333333333334,585.1851851851851,25.583333333333332,622.2222222222222,26C659.2592592592592,26.416666666666668,674.074074074074,-9.416666666666666,711.1111111111111,-9C748.1481481481482,-8.583333333333334,781.4814814814815,20.291666666666664,800,28" transform="matrix(1,0,0,1,0,703)"></path><path d="M10,10C26.435185185185183,13.75,53.93518518518518,32.583333333333336,88.88888888888889,28C123.84259259259258,23.416666666666668,140.74074074074073,-11.791666666666666,177.77777777777777,-12C214.8148148148148,-12.208333333333334,229.6296296296296,27.416666666666668,266.66666666666663,27C303.7037037037037,26.583333333333332,318.5185185185185,-14.625,355.55555555555554,-14C392.5925925925926,-13.375,407.40740740740745,29.375,444.44444444444446,30C481.48148148148147,30.625,496.29629629629625,-10.166666666666666,533.3333333333333,-11C570.3703703703703,-11.833333333333334,585.1851851851851,25.583333333333332,622.2222222222222,26C659.2592592592592,26.416666666666668,674.074074074074,-9.416666666666666,711.1111111111111,-9C748.1481481481482,-8.583333333333334,781.4814814814815,20.291666666666664,800,28" transform="matrix(1,0,0,1,0,684)"></path><path d="M10,10C26.435185185185183,13.75,53.93518518518518,32.583333333333336,88.88888888888889,28C123.84259259259258,23.416666666666668,140.74074074074073,-11.791666666666666,177.77777777777777,-12C214.8148148148148,-12.208333333333334,229.6296296296296,27.416666666666668,266.66666666666663,27C303.7037037037037,26.583333333333332,318.5185185185185,-14.625,355.55555555555554,-14C392.5925925925926,-13.375,407.40740740740745,29.375,444.44444444444446,30C481.48148148148147,30.625,496.29629629629625,-10.166666666666666,533.3333333333333,-11C570.3703703703703,-11.833333333333334,585.1851851851851,25.583333333333332,622.2222222222222,26C659.2592592592592,26.416666666666668,674.074074074074,-9.416666666666666,711.1111111111111,-9C748.1481481481482,-8.583333333333334,781.4814814814815,20.291666666666664,800,28" transform="matrix(1,0,0,1,0,665)"></path><path d="M10,10C26.435185185185183,13.75,53.93518518518518,32.583333333333336,88.88888888888889,28C123.84259259259258,23.416666666666668,140.74074074074073,-11.791666666666666,177.77777777777777,-12C214.8148148148148,-12.208333333333334,229.6296296296296,27.416666666666668,266.66666666666663,27C303.7037037037037,26.583333333333332,318.5185185185185,-14.625,355.55555555555554,-14C392.5925925925926,-13.375,407.40740740740745,29.375,444.44444444444446,30C481.48148148148147,30.625,496.29629629629625,-10.166666666666666,533.3333333333333,-11C570.3703703703703,-11.833333333333334,585.1851851851851,25.583333333333332,622.2222222222222,26C659.2592592592592,26.416666666666668,674.074074074074,-9.416666666666666,711.1111111111111,-9C748.1481481481482,-8.583333333333334,781.4814814814815,20.291666666666664,800,28" transform="matrix(1,0,0,1,0,646)"></path><path d="M10,10C26.435185185185183,13.75,53.93518518518518,32.583333333333336,88.88888888888889,28C123.84259259259258,23.416666666666668,140.74074074074073,-11.791666666666666,177.77777777777777,-12C214.8148148148148,-12.208333333333334,229.6296296296296,27.416666666666668,266.66666666666663,27C303.7037037037037,26.583333333333332,318.5185185185185,-14.625,355.55555555555554,-14C392.5925925925926,-13.375,407.40740740740745,29.375,444.44444444444446,30C481.48148148148147,30.625,496.29629629629625,-10.166666666666666,533.3333333333333,-11C570.3703703703703,-11.833333333333334,585.1851851851851,25.583333333333332,622.2222222222222,26C659.2592592592592,26.416666666666668,674.074074074074,-9.416666666666666,711.1111111111111,-9C748.1481481481482,-8.583333333333334,781.4814814814815,20.291666666666664,800,28" transform="matrix(1,0,0,1,0,627)"></path><path d="M10,10C26.435185185185183,13.75,53.93518518518518,32.583333333333336,88.88888888888889,28C123.84259259259258,23.416666666666668,140.74074074074073,-11.791666666666666,177.77777777777777,-12C214.8148148148148,-12.208333333333334,229.6296296296296,27.416666666666668,266.66666666666663,27C303.7037037037037,26.583333333333332,318.5185185185185,-14.625,355.55555555555554,-14C392.5925925925926,-13.375,407.40740740740745,29.375,444.44444444444446,30C481.48148148148147,30.625,496.29629629629625,-10.166666666666666,533.3333333333333,-11C570.3703703703703,-11.833333333333334,585.1851851851851,25.583333333333332,622.2222222222222,26C659.2592592592592,26.416666666666668,674.074074074074,-9.416666666666666,711.1111111111111,-9C748.1481481481482,-8.583333333333334,781.4814814814815,20.291666666666664,800,28" transform="matrix(1,0,0,1,0,608)"></path><path d="M10,10C26.435185185185183,13.75,53.93518518518518,32.583333333333336,88.88888888888889,28C123.84259259259258,23.416666666666668,140.74074074074073,-11.791666666666666,177.77777777777777,-12C214.8148148148148,-12.208333333333334,229.6296296296296,27.416666666666668,266.66666666666663,27C303.7037037037037,26.583333333333332,318.5185185185185,-14.625,355.55555555555554,-14C392.5925925925926,-13.375,407.40740740740745,29.375,444.44444444444446,30C481.48148148148147,30.625,496.29629629629625,-10.166666666666666,533.3333333333333,-11C570.3703703703703,-11.833333333333334,585.1851851851851,25.583333333333332,622.2222222222222,26C659.2592592592592,26.416666666666668,674.074074074074,-9.416666666666666,711.1111111111111,-9C748.1481481481482,-8.583333333333334,781.4814814814815,20.291666666666664,800,28" transform="matrix(1,0,0,1,0,589)"></path><path d="M10,10C26.435185185185183,13.75,53.93518518518518,32.583333333333336,88.88888888888889,28C123.84259259259258,23.416666666666668,140.74074074074073,-11.791666666666666,177.77777777777777,-12C214.8148148148148,-12.208333333333334,229.6296296296296,27.416666666666668,266.66666666666663,27C303.7037037037037,26.583333333333332,318.5185185185185,-14.625,355.55555555555554,-14C392.5925925925926,-13.375,407.40740740740745,29.375,444.44444444444446,30C481.48148148148147,30.625,496.29629629629625,-10.166666666666666,533.3333333333333,-11C570.3703703703703,-11.833333333333334,585.1851851851851,25.583333333333332,622.2222222222222,26C659.2592592592592,26.416666666666668,674.074074074074,-9.416666666666666,711.1111111111111,-9C748.1481481481482,-8.583333333333334,781.4814814814815,20.291666666666664,800,28" transform="matrix(1,0,0,1,0,570)"></path><path d="M10,10C26.435185185185183,13.75,53.93518518518518,32.583333333333336,88.88888888888889,28C123.84259259259258,23.416666666666668,140.74074074074073,-11.791666666666666,177.77777777777777,-12C214.8148148148148,-12.208333333333334,229.6296296296296,27.416666666666668,266.66666666666663,27C303.7037037037037,26.583333333333332,318.5185185185185,-14.625,355.55555555555554,-14C392.5925925925926,-13.375,407.40740740740745,29.375,444.44444444444446,30C481.48148148148147,30.625,496.29629629629625,-10.166666666666666,533.3333333333333,-11C570.3703703703703,-11.833333333333334,585.1851851851851,25.583333333333332,622.2222222222222,26C659.2592592592592,26.416666666666668,674.074074074074,-9.416666666666666,711.1111111111111,-9C748.1481481481482,-8.583333333333334,781.4814814814815,20.291666666666664,800,28" transform="matrix(1,0,0,1,0,551)"></path><path d="M10,10C26.435185185185183,13.75,53.93518518518518,32.583333333333336,88.88888888888889,28C123.84259259259258,23.416666666666668,140.74074074074073,-11.791666666666666,177.77777777777777,-12C214.8148148148148,-12.208333333333334,229.6296296296296,27.416666666666668,266.66666666666663,27C303.7037037037037,26.583333333333332,318.5185185185185,-14.625,355.55555555555554,-14C392.5925925925926,-13.375,407.40740740740745,29.375,444.44444444444446,30C481.48148148148147,30.625,496.29629629629625,-10.166666666666666,533.3333333333333,-11C570.3703703703703,-11.833333333333334,585.1851851851851,25.583333333333332,622.2222222222222,26C659.2592592592592,26.416666666666668,674.074074074074,-9.416666666666666,711.1111111111111,-9C748.1481481481482,-8.583333333333334,781.4814814814815,20.291666666666664,800,28" transform="matrix(1,0,0,1,0,532)"></path><path d="M10,10C26.435185185185183,13.75,53.93518518518518,32.583333333333336,88.88888888888889,28C123.84259259259258,23.416666666666668,140.74074074074073,-11.791666666666666,177.77777777777777,-12C214.8148148148148,-12.208333333333334,229.6296296296296,27.416666666666668,266.66666666666663,27C303.7037037037037,26.583333333333332,318.5185185185185,-14.625,355.55555555555554,-14C392.5925925925926,-13.375,407.40740740740745,29.375,444.44444444444446,30C481.48148148148147,30.625,496.29629629629625,-10.166666666666666,533.3333333333333,-11C570.3703703703703,-11.833333333333334,585.1851851851851,25.583333333333332,622.2222222222222,26C659.2592592592592,26.416666666666668,674.074074074074,-9.416666666666666,711.1111111111111,-9C748.1481481481482,-8.583333333333334,781.4814814814815,20.291666666666664,800,28" transform="matrix(1,0,0,1,0,513)"></path><path d="M10,10C26.435185185185183,13.75,53.93518518518518,32.583333333333336,88.88888888888889,28C123.84259259259258,23.416666666666668,140.74074074074073,-11.791666666666666,177.77777777777777,-12C214.8148148148148,-12.208333333333334,229.6296296296296,27.416666666666668,266.66666666666663,27C303.7037037037037,26.583333333333332,318.5185185185185,-14.625,355.55555555555554,-14C392.5925925925926,-13.375,407.40740740740745,29.375,444.44444444444446,30C481.48148148148147,30.625,496.29629629629625,-10.166666666666666,533.3333333333333,-11C570.3703703703703,-11.833333333333334,585.1851851851851,25.583333333333332,622.2222222222222,26C659.2592592592592,26.416666666666668,674.074074074074,-9.416666666666666,711.1111111111111,-9C748.1481481481482,-8.583333333333334,781.4814814814815,20.291666666666664,800,28" transform="matrix(1,0,0,1,0,494)"></path><path d="M10,10C26.435185185185183,13.75,53.93518518518518,32.583333333333336,88.88888888888889,28C123.84259259259258,23.416666666666668,140.74074074074073,-11.791666666666666,177.77777777777777,-12C214.8148148148148,-12.208333333333334,229.6296296296296,27.416666666666668,266.66666666666663,27C303.7037037037037,26.583333333333332,318.5185185185185,-14.625,355.55555555555554,-14C392.5925925925926,-13.375,407.40740740740745,29.375,444.44444444444446,30C481.48148148148147,30.625,496.29629629629625,-10.166666666666666,533.3333333333333,-11C570.3703703703703,-11.833333333333334,585.1851851851851,25.583333333333332,622.2222222222222,26C659.2592592592592,26.416666666666668,674.074074074074,-9.416666666666666,711.1111111111111,-9C748.1481481481482,-8.583333333333334,781.4814814814815,20.291666666666664,800,28" transform="matrix(1,0,0,1,0,475)"></path><path d="M10,10C26.435185185185183,13.75,53.93518518518518,32.583333333333336,88.88888888888889,28C123.84259259259258,23.416666666666668,140.74074074074073,-11.791666666666666,177.77777777777777,-12C214.8148148148148,-12.208333333333334,229.6296296296296,27.416666666666668,266.66666666666663,27C303.7037037037037,26.583333333333332,318.5185185185185,-14.625,355.55555555555554,-14C392.5925925925926,-13.375,407.40740740740745,29.375,444.44444444444446,30C481.48148148148147,30.625,496.29629629629625,-10.166666666666666,533.3333333333333,-11C570.3703703703703,-11.833333333333334,585.1851851851851,25.583333333333332,622.2222222222222,26C659.2592592592592,26.416666666666668,674.074074074074,-9.416666666666666,711.1111111111111,-9C748.1481481481482,-8.583333333333334,781.4814814814815,20.291666666666664,800,28" transform="matrix(1,0,0,1,0,456)"></path><path d="M10,10C26.435185185185183,13.75,53.93518518518518,32.583333333333336,88.88888888888889,28C123.84259259259258,23.416666666666668,140.74074074074073,-11.791666666666666,177.77777777777777,-12C214.8148148148148,-12.208333333333334,229.6296296296296,27.416666666666668,266.66666666666663,27C303.7037037037037,26.583333333333332,318.5185185185185,-14.625,355.55555555555554,-14C392.5925925925926,-13.375,407.40740740740745,29.375,444.44444444444446,30C481.48148148148147,30.625,496.29629629629625,-10.166666666666666,533.3333333333333,-11C570.3703703703703,-11.833333333333334,585.1851851851851,25.583333333333332,622.2222222222222,26C659.2592592592592,26.416666666666668,674.074074074074,-9.416666666666666,711.1111111111111,-9C748.1481481481482,-8.583333333333334,781.4814814814815,20.291666666666664,800,28" transform="matrix(1,0,0,1,0,437)"></path><path d="M10,10C26.435185185185183,13.75,53.93518518518518,32.583333333333336,88.88888888888889,28C123.84259259259258,23.416666666666668,140.74074074074073,-11.791666666666666,177.77777777777777,-12C214.8148148148148,-12.208333333333334,229.6296296296296,27.416666666666668,266.66666666666663,27C303.7037037037037,26.583333333333332,318.5185185185185,-14.625,355.55555555555554,-14C392.5925925925926,-13.375,407.40740740740745,29.375,444.44444444444446,30C481.48148148148147,30.625,496.29629629629625,-10.166666666666666,533.3333333333333,-11C570.3703703703703,-11.833333333333334,585.1851851851851,25.583333333333332,622.2222222222222,26C659.2592592592592,26.416666666666668,674.074074074074,-9.416666666666666,711.1111111111111,-9C748.1481481481482,-8.583333333333334,781.4814814814815,20.291666666666664,800,28" transform="matrix(1,0,0,1,0,418)"></path><path d="M10,10C26.435185185185183,13.75,53.93518518518518,32.583333333333336,88.88888888888889,28C123.84259259259258,23.416666666666668,140.74074074074073,-11.791666666666666,177.77777777777777,-12C214.8148148148148,-12.208333333333334,229.6296296296296,27.416666666666668,266.66666666666663,27C303.7037037037037,26.583333333333332,318.5185185185185,-14.625,355.55555555555554,-14C392.5925925925926,-13.375,407.40740740740745,29.375,444.44444444444446,30C481.48148148148147,30.625,496.29629629629625,-10.166666666666666,533.3333333333333,-11C570.3703703703703,-11.833333333333334,585.1851851851851,25.583333333333332,622.2222222222222,26C659.2592592592592,26.416666666666668,674.074074074074,-9.416666666666666,711.1111111111111,-9C748.1481481481482,-8.583333333333334,781.4814814814815,20.291666666666664,800,28" transform="matrix(1,0,0,1,0,399)"></path><path d="M10,10C26.435185185185183,13.75,53.93518518518518,32.583333333333336,88.88888888888889,28C123.84259259259258,23.416666666666668,140.74074074074073,-11.791666666666666,177.77777777777777,-12C214.8148148148148,-12.208333333333334,229.6296296296296,27.416666666666668,266.66666666666663,27C303.7037037037037,26.583333333333332,318.5185185185185,-14.625,355.55555555555554,-14C392.5925925925926,-13.375,407.40740740740745,29.375,444.44444444444446,30C481.48148148148147,30.625,496.29629629629625,-10.166666666666666,533.3333333333333,-11C570.3703703703703,-11.833333333333334,585.1851851851851,25.583333333333332,622.2222222222222,26C659.2592592592592,26.416666666666668,674.074074074074,-9.416666666666666,711.1111111111111,-9C748.1481481481482,-8.583333333333334,781.4814814814815,20.291666666666664,800,28" transform="matrix(1,0,0,1,0,380)"></path><path d="M10,10C26.435185185185183,13.75,53.93518518518518,32.583333333333336,88.88888888888889,28C123.84259259259258,23.416666666666668,140.74074074074073,-11.791666666666666,177.77777777777777,-12C214.8148148148148,-12.208333333333334,229.6296296296296,27.416666666666668,266.66666666666663,27C303.7037037037037,26.583333333333332,318.5185185185185,-14.625,355.55555555555554,-14C392.5925925925926,-13.375,407.40740740740745,29.375,444.44444444444446,30C481.48148148148147,30.625,496.29629629629625,-10.166666666666666,533.3333333333333,-11C570.3703703703703,-11.833333333333334,585.1851851851851,25.583333333333332,622.2222222222222,26C659.2592592592592,26.416666666666668,674.074074074074,-9.416666666666666,711.1111111111111,-9C748.1481481481482,-8.583333333333334,781.4814814814815,20.291666666666664,800,28" transform="matrix(1,0,0,1,0,361)"></path><path d="M10,10C26.435185185185183,13.75,53.93518518518518,32.583333333333336,88.88888888888889,28C123.84259259259258,23.416666666666668,140.74074074074073,-11.791666666666666,177.77777777777777,-12C214.8148148148148,-12.208333333333334,229.6296296296296,27.416666666666668,266.66666666666663,27C303.7037037037037,26.583333333333332,318.5185185185185,-14.625,355.55555555555554,-14C392.5925925925926,-13.375,407.40740740740745,29.375,444.44444444444446,30C481.48148148148147,30.625,496.29629629629625,-10.166666666666666,533.3333333333333,-11C570.3703703703703,-11.833333333333334,585.1851851851851,25.583333333333332,622.2222222222222,26C659.2592592592592,26.416666666666668,674.074074074074,-9.416666666666666,711.1111111111111,-9C748.1481481481482,-8.583333333333334,781.4814814814815,20.291666666666664,800,28" transform="matrix(1,0,0,1,0,342)"></path><path d="M10,10C26.435185185185183,13.75,53.93518518518518,32.583333333333336,88.88888888888889,28C123.84259259259258,23.416666666666668,140.74074074074073,-11.791666666666666,177.77777777777777,-12C214.8148148148148,-12.208333333333334,229.6296296296296,27.416666666666668,266.66666666666663,27C303.7037037037037,26.583333333333332,318.5185185185185,-14.625,355.55555555555554,-14C392.5925925925926,-13.375,407.40740740740745,29.375,444.44444444444446,30C481.48148148148147,30.625,496.29629629629625,-10.166666666666666,533.3333333333333,-11C570.3703703703703,-11.833333333333334,585.1851851851851,25.583333333333332,622.2222222222222,26C659.2592592592592,26.416666666666668,674.074074074074,-9.416666666666666,711.1111111111111,-9C748.1481481481482,-8.583333333333334,781.4814814814815,20.291666666666664,800,28" transform="matrix(1,0,0,1,0,323)"></path><path d="M10,10C26.435185185185183,13.75,53.93518518518518,32.583333333333336,88.88888888888889,28C123.84259259259258,23.416666666666668,140.74074074074073,-11.791666666666666,177.77777777777777,-12C214.8148148148148,-12.208333333333334,229.6296296296296,27.416666666666668,266.66666666666663,27C303.7037037037037,26.583333333333332,318.5185185185185,-14.625,355.55555555555554,-14C392.5925925925926,-13.375,407.40740740740745,29.375,444.44444444444446,30C481.48148148148147,30.625,496.29629629629625,-10.166666666666666,533.3333333333333,-11C570.3703703703703,-11.833333333333334,585.1851851851851,25.583333333333332,622.2222222222222,26C659.2592592592592,26.416666666666668,674.074074074074,-9.416666666666666,711.1111111111111,-9C748.1481481481482,-8.583333333333334,781.4814814814815,20.291666666666664,800,28" transform="matrix(1,0,0,1,0,304)"></path><path d="M10,10C26.435185185185183,13.75,53.93518518518518,32.583333333333336,88.88888888888889,28C123.84259259259258,23.416666666666668,140.74074074074073,-11.791666666666666,177.77777777777777,-12C214.8148148148148,-12.208333333333334,229.6296296296296,27.416666666666668,266.66666666666663,27C303.7037037037037,26.583333333333332,318.5185185185185,-14.625,355.55555555555554,-14C392.5925925925926,-13.375,407.40740740740745,29.375,444.44444444444446,30C481.48148148148147,30.625,496.29629629629625,-10.166666666666666,533.3333333333333,-11C570.3703703703703,-11.833333333333334,585.1851851851851,25.583333333333332,622.2222222222222,26C659.2592592592592,26.416666666666668,674.074074074074,-9.416666666666666,711.1111111111111,-9C748.1481481481482,-8.583333333333334,781.4814814814815,20.291666666666664,800,28" transform="matrix(1,0,0,1,0,285)"></path><path d="M10,10C26.435185185185183,13.75,53.93518518518518,32.583333333333336,88.88888888888889,28C123.84259259259258,23.416666666666668,140.74074074074073,-11.791666666666666,177.77777777777777,-12C214.8148148148148,-12.208333333333334,229.6296296296296,27.416666666666668,266.66666666666663,27C303.7037037037037,26.583333333333332,318.5185185185185,-14.625,355.55555555555554,-14C392.5925925925926,-13.375,407.40740740740745,29.375,444.44444444444446,30C481.48148148148147,30.625,496.29629629629625,-10.166666666666666,533.3333333333333,-11C570.3703703703703,-11.833333333333334,585.1851851851851,25.583333333333332,622.2222222222222,26C659.2592592592592,26.416666666666668,674.074074074074,-9.416666666666666,711.1111111111111,-9C748.1481481481482,-8.583333333333334,781.4814814814815,20.291666666666664,800,28" transform="matrix(1,0,0,1,0,266)"></path><path d="M10,10C26.435185185185183,13.75,53.93518518518518,32.583333333333336,88.88888888888889,28C123.84259259259258,23.416666666666668,140.74074074074073,-11.791666666666666,177.77777777777777,-12C214.8148148148148,-12.208333333333334,229.6296296296296,27.416666666666668,266.66666666666663,27C303.7037037037037,26.583333333333332,318.5185185185185,-14.625,355.55555555555554,-14C392.5925925925926,-13.375,407.40740740740745,29.375,444.44444444444446,30C481.48148148148147,30.625,496.29629629629625,-10.166666666666666,533.3333333333333,-11C570.3703703703703,-11.833333333333334,585.1851851851851,25.583333333333332,622.2222222222222,26C659.2592592592592,26.416666666666668,674.074074074074,-9.416666666666666,711.1111111111111,-9C748.1481481481482,-8.583333333333334,781.4814814814815,20.291666666666664,800,28" transform="matrix(1,0,0,1,0,247)"></path><path d="M10,10C26.435185185185183,13.75,53.93518518518518,32.583333333333336,88.88888888888889,28C123.84259259259258,23.416666666666668,140.74074074074073,-11.791666666666666,177.77777777777777,-12C214.8148148148148,-12.208333333333334,229.6296296296296,27.416666666666668,266.66666666666663,27C303.7037037037037,26.583333333333332,318.5185185185185,-14.625,355.55555555555554,-14C392.5925925925926,-13.375,407.40740740740745,29.375,444.44444444444446,30C481.48148148148147,30.625,496.29629629629625,-10.166666666666666,533.3333333333333,-11C570.3703703703703,-11.833333333333334,585.1851851851851,25.583333333333332,622.2222222222222,26C659.2592592592592,26.416666666666668,674.074074074074,-9.416666666666666,711.1111111111111,-9C748.1481481481482,-8.583333333333334,781.4814814814815,20.291666666666664,800,28" transform="matrix(1,0,0,1,0,228)"></path><path d="M10,10C26.435185185185183,13.75,53.93518518518518,32.583333333333336,88.88888888888889,28C123.84259259259258,23.416666666666668,140.74074074074073,-11.791666666666666,177.77777777777777,-12C214.8148148148148,-12.208333333333334,229.6296296296296,27.416666666666668,266.66666666666663,27C303.7037037037037,26.583333333333332,318.5185185185185,-14.625,355.55555555555554,-14C392.5925925925926,-13.375,407.40740740740745,29.375,444.44444444444446,30C481.48148148148147,30.625,496.29629629629625,-10.166666666666666,533.3333333333333,-11C570.3703703703703,-11.833333333333334,585.1851851851851,25.583333333333332,622.2222222222222,26C659.2592592592592,26.416666666666668,674.074074074074,-9.416666666666666,711.1111111111111,-9C748.1481481481482,-8.583333333333334,781.4814814814815,20.291666666666664,800,28" transform="matrix(1,0,0,1,0,209)"></path><path d="M10,10C26.435185185185183,13.75,53.93518518518518,32.583333333333336,88.88888888888889,28C123.84259259259258,23.416666666666668,140.74074074074073,-11.791666666666666,177.77777777777777,-12C214.8148148148148,-12.208333333333334,229.6296296296296,27.416666666666668,266.66666666666663,27C303.7037037037037,26.583333333333332,318.5185185185185,-14.625,355.55555555555554,-14C392.5925925925926,-13.375,407.40740740740745,29.375,444.44444444444446,30C481.48148148148147,30.625,496.29629629629625,-10.166666666666666,533.3333333333333,-11C570.3703703703703,-11.833333333333334,585.1851851851851,25.583333333333332,622.2222222222222,26C659.2592592592592,26.416666666666668,674.074074074074,-9.416666666666666,711.1111111111111,-9C748.1481481481482,-8.583333333333334,781.4814814814815,20.291666666666664,800,28" transform="matrix(1,0,0,1,0,190)"></path><path d="M10,10C26.435185185185183,13.75,53.93518518518518,32.583333333333336,88.88888888888889,28C123.84259259259258,23.416666666666668,140.74074074074073,-11.791666666666666,177.77777777777777,-12C214.8148148148148,-12.208333333333334,229.6296296296296,27.416666666666668,266.66666666666663,27C303.7037037037037,26.583333333333332,318.5185185185185,-14.625,355.55555555555554,-14C392.5925925925926,-13.375,407.40740740740745,29.375,444.44444444444446,30C481.48148148148147,30.625,496.29629629629625,-10.166666666666666,533.3333333333333,-11C570.3703703703703,-11.833333333333334,585.1851851851851,25.583333333333332,622.2222222222222,26C659.2592592592592,26.416666666666668,674.074074074074,-9.416666666666666,711.1111111111111,-9C748.1481481481482,-8.583333333333334,781.4814814814815,20.291666666666664,800,28" transform="matrix(1,0,0,1,0,171)"></path><path d="M10,10C26.435185185185183,13.75,53.93518518518518,32.583333333333336,88.88888888888889,28C123.84259259259258,23.416666666666668,140.74074074074073,-11.791666666666666,177.77777777777777,-12C214.8148148148148,-12.208333333333334,229.6296296296296,27.416666666666668,266.66666666666663,27C303.7037037037037,26.583333333333332,318.5185185185185,-14.625,355.55555555555554,-14C392.5925925925926,-13.375,407.40740740740745,29.375,444.44444444444446,30C481.48148148148147,30.625,496.29629629629625,-10.166666666666666,533.3333333333333,-11C570.3703703703703,-11.833333333333334,585.1851851851851,25.583333333333332,622.2222222222222,26C659.2592592592592,26.416666666666668,674.074074074074,-9.416666666666666,711.1111111111111,-9C748.1481481481482,-8.583333333333334,781.4814814814815,20.291666666666664,800,28" transform="matrix(1,0,0,1,0,152)"></path><path d="M10,10C26.435185185185183,13.75,53.93518518518518,32.583333333333336,88.88888888888889,28C123.84259259259258,23.416666666666668,140.74074074074073,-11.791666666666666,177.77777777777777,-12C214.8148148148148,-12.208333333333334,229.6296296296296,27.416666666666668,266.66666666666663,27C303.7037037037037,26.583333333333332,318.5185185185185,-14.625,355.55555555555554,-14C392.5925925925926,-13.375,407.40740740740745,29.375,444.44444444444446,30C481.48148148148147,30.625,496.29629629629625,-10.166666666666666,533.3333333333333,-11C570.3703703703703,-11.833333333333334,585.1851851851851,25.583333333333332,622.2222222222222,26C659.2592592592592,26.416666666666668,674.074074074074,-9.416666666666666,711.1111111111111,-9C748.1481481481482,-8.583333333333334,781.4814814814815,20.291666666666664,800,28" transform="matrix(1,0,0,1,0,133)"></path><path d="M10,10C26.435185185185183,13.75,53.93518518518518,32.583333333333336,88.88888888888889,28C123.84259259259258,23.416666666666668,140.74074074074073,-11.791666666666666,177.77777777777777,-12C214.8148148148148,-12.208333333333334,229.6296296296296,27.416666666666668,266.66666666666663,27C303.7037037037037,26.583333333333332,318.5185185185185,-14.625,355.55555555555554,-14C392.5925925925926,-13.375,407.40740740740745,29.375,444.44444444444446,30C481.48148148148147,30.625,496.29629629629625,-10.166666666666666,533.3333333333333,-11C570.3703703703703,-11.833333333333334,585.1851851851851,25.583333333333332,622.2222222222222,26C659.2592592592592,26.416666666666668,674.074074074074,-9.416666666666666,711.1111111111111,-9C748.1481481481482,-8.583333333333334,781.4814814814815,20.291666666666664,800,28" transform="matrix(1,0,0,1,0,114)"></path><path d="M10,10C26.435185185185183,13.75,53.93518518518518,32.583333333333336,88.88888888888889,28C123.84259259259258,23.416666666666668,140.74074074074073,-11.791666666666666,177.77777777777777,-12C214.8148148148148,-12.208333333333334,229.6296296296296,27.416666666666668,266.66666666666663,27C303.7037037037037,26.583333333333332,318.5185185185185,-14.625,355.55555555555554,-14C392.5925925925926,-13.375,407.40740740740745,29.375,444.44444444444446,30C481.48148148148147,30.625,496.29629629629625,-10.166666666666666,533.3333333333333,-11C570.3703703703703,-11.833333333333334,585.1851851851851,25.583333333333332,622.2222222222222,26C659.2592592592592,26.416666666666668,674.074074074074,-9.416666666666666,711.1111111111111,-9C748.1481481481482,-8.583333333333334,781.4814814814815,20.291666666666664,800,28" transform="matrix(1,0,0,1,0,95)"></path><path d="M10,10C26.435185185185183,13.75,53.93518518518518,32.583333333333336,88.88888888888889,28C123.84259259259258,23.416666666666668,140.74074074074073,-11.791666666666666,177.77777777777777,-12C214.8148148148148,-12.208333333333334,229.6296296296296,27.416666666666668,266.66666666666663,27C303.7037037037037,26.583333333333332,318.5185185185185,-14.625,355.55555555555554,-14C392.5925925925926,-13.375,407.40740740740745,29.375,444.44444444444446,30C481.48148148148147,30.625,496.29629629629625,-10.166666666666666,533.3333333333333,-11C570.3703703703703,-11.833333333333334,585.1851851851851,25.583333333333332,622.2222222222222,26C659.2592592592592,26.416666666666668,674.074074074074,-9.416666666666666,711.1111111111111,-9C748.1481481481482,-8.583333333333334,781.4814814814815,20.291666666666664,800,28" transform="matrix(1,0,0,1,0,76)"></path><path d="M10,10C26.435185185185183,13.75,53.93518518518518,32.583333333333336,88.88888888888889,28C123.84259259259258,23.416666666666668,140.74074074074073,-11.791666666666666,177.77777777777777,-12C214.8148148148148,-12.208333333333334,229.6296296296296,27.416666666666668,266.66666666666663,27C303.7037037037037,26.583333333333332,318.5185185185185,-14.625,355.55555555555554,-14C392.5925925925926,-13.375,407.40740740740745,29.375,444.44444444444446,30C481.48148148148147,30.625,496.29629629629625,-10.166666666666666,533.3333333333333,-11C570.3703703703703,-11.833333333333334,585.1851851851851,25.583333333333332,622.2222222222222,26C659.2592592592592,26.416666666666668,674.074074074074,-9.416666666666666,711.1111111111111,-9C748.1481481481482,-8.583333333333334,781.4814814814815,20.291666666666664,800,28" transform="matrix(1,0,0,1,0,57)"></path><path d="M10,10C26.435185185185183,13.75,53.93518518518518,32.583333333333336,88.88888888888889,28C123.84259259259258,23.416666666666668,140.74074074074073,-11.791666666666666,177.77777777777777,-12C214.8148148148148,-12.208333333333334,229.6296296296296,27.416666666666668,266.66666666666663,27C303.7037037037037,26.583333333333332,318.5185185185185,-14.625,355.55555555555554,-14C392.5925925925926,-13.375,407.40740740740745,29.375,444.44444444444446,30C481.48148148148147,30.625,496.29629629629625,-10.166666666666666,533.3333333333333,-11C570.3703703703703,-11.833333333333334,585.1851851851851,25.583333333333332,622.2222222222222,26C659.2592592592592,26.416666666666668,674.074074074074,-9.416666666666666,711.1111111111111,-9C748.1481481481482,-8.583333333333334,781.4814814814815,20.291666666666664,800,28" transform="matrix(1,0,0,1,0,38)"></path><path d="M10,10C26.435185185185183,13.75,53.93518518518518,32.583333333333336,88.88888888888889,28C123.84259259259258,23.416666666666668,140.74074074074073,-11.791666666666666,177.77777777777777,-12C214.8148148148148,-12.208333333333334,229.6296296296296,27.416666666666668,266.66666666666663,27C303.7037037037037,26.583333333333332,318.5185185185185,-14.625,355.55555555555554,-14C392.5925925925926,-13.375,407.40740740740745,29.375,444.44444444444446,30C481.48148148148147,30.625,496.29629629629625,-10.166666666666666,533.3333333333333,-11C570.3703703703703,-11.833333333333334,585.1851851851851,25.583333333333332,622.2222222222222,26C659.2592592592592,26.416666666666668,674.074074074074,-9.416666666666666,711.1111111111111,-9C748.1481481481482,-8.583333333333334,781.4814814814815,20.291666666666664,800,28" transform="matrix(1,0,0,1,0,19)"></path></g></svg>